HIERARCHY
ROOT root     
{
	OFFSET 0.0000 0.0000 0.0000
	CHANNELS 6 Xposition Yposition Zposition Zrotation Yrotation Xrotation
	JOINT pelvis   
	{
		OFFSET 0.0000 0.0000 0.0000
		CHANNELS 3 Zrotation Yrotation Xrotation
		JOINT thorax   
		{
			OFFSET 0.0000 23.0750 -5.0000
			CHANNELS 3 Zrotation Yrotation Xrotation
			JOINT rclavicle
			{
				OFFSET 0.0000 28.0009 0.0000
				CHANNELS 3 Zrotation Yrotation Xrotation
				JOINT rhumerus 
				{
					OFFSET -18.5725 5.5939 0.0000
					CHANNELS 3 Zrotation Yrotation Xrotation
					JOINT rradius  
					{
						OFFSET -24.8459 0.0000 0.0000
						CHANNELS 3 Zrotation Yrotation Xrotation
						JOINT rhand    
						{
							OFFSET -24.5477 0.0000 0.0000
							CHANNELS 3 Zrotation Yrotation Xrotation
							End Site
							{
								OFFSET -8.1826 0.0000 0.0000
							}
						}
					}
				}
			}
			JOINT lclavicle
			{
				OFFSET 0.0000 28.0009 0.0000
				CHANNELS 3 Zrotation Yrotation Xrotation
				JOINT lhumerus 
				{
					OFFSET 18.5725 5.5939 0.0000
					CHANNELS 3 Zrotation Yrotation Xrotation
					JOINT lradius  
					{
						OFFSET 24.8459 0.0000 0.0000
						CHANNELS 3 Zrotation Yrotation Xrotation
						JOINT lhand    
						{
							OFFSET 24.5477 0.0000 0.0000
							CHANNELS 3 Zrotation Yrotation Xrotation
							End Site
							{
								OFFSET 8.1826 0.0000 0.0000
							}
						}
					}
				}
			}
			JOINT head     
			{
				OFFSET 0.0000 35.2030 0.0000
				CHANNELS 3 Zrotation Yrotation Xrotation
				End Site
				{
					OFFSET 0.0000 11.7343 0.0000
				}
			}
		}
		JOINT rfemur   
		{
			OFFSET -8.2817 0.0000 0.0000
			CHANNELS 3 Zrotation Yrotation Xrotation
			JOINT rtibia   
			{
				OFFSET 0.0000 -43.3627 0.0000
				CHANNELS 3 Zrotation Yrotation Xrotation
				JOINT rfoot    
				{
					OFFSET 0.0000 -38.2947 0.0000
					CHANNELS 3 Zrotation Yrotation Xrotation
					JOINT rtoes    
					{
						OFFSET 0.0000 0.0000 16.6054
						CHANNELS 3 Zrotation Yrotation Xrotation
						End Site
						{
							OFFSET 0.0000 0.0000 5.5351
						}
					}
				}
			}
		}
		JOINT lfemur   
		{
			OFFSET 8.2817 0.0000 0.0000
			CHANNELS 3 Zrotation Yrotation Xrotation
			JOINT ltibia   
			{
				OFFSET 0.0000 -43.3627 0.0000
				CHANNELS 3 Zrotation Yrotation Xrotation
				JOINT lfoot    
				{
					OFFSET 0.0000 -38.2947 0.0000
					CHANNELS 3 Zrotation Yrotation Xrotation
					JOINT ltoes    
					{
						OFFSET 0.0000 0.0000 16.6054
						CHANNELS 3 Zrotation Yrotation Xrotation
						End Site
						{
							OFFSET 0.0000 0.0000 5.5351
						}
					}
				}
			}
		}
	}
}
MOTION
Frames: 15
Frame Time: .0333333
108.2 76.962 14.086 -95.8026 -82.6516 125.204 0 -0 0 -12.138 -3.63227 21.6792 20.1026 -6.27079 3.97062e-05 60.7398 -6.77706 12.8375 0 52.4847 0 -2.60918 4.53245 -0.1033 -8.09396 7.02168 2.91524e-06 -45.7739 -18.6101 -2.29385 -2.15101e-06 -81.343 1.8483e-06 -6.54224 2.8072 -0.160502 0.0660925 6.56345 -13.7662 16.7296 -2.27784 -70.7844 -0 -0 60.9793 -4.00281e-06 -9.68098 -5.82178 0.991416 -3.12583e-06 -23.3792 -4.1783 17.5349 -61.1515 -0 -0 68.4856 1.31548e-05 3.27156 -16.7311 -0.9428 -1.30634e-08 -35.0584 
107.29 77.014 14.038 -95.3172 -82.7356 124.565 0 -0 0 -11.9072 -3.89188 21.7178 20.1015 -6.50143 -2.64897e-05 60.3421 -7.41382 12.6768 0 52.1792 0 -2.47132 4.48785 -0.0968022 -7.86812 7.13063 8.90975e-07 -45.3164 -19.0896 -2.30129 -1.723e-06 -82.4228 1.50908e-06 -6.81609 2.74778 -0.163695 0.228604 6.58845 -13.8647 16.75 -2.18734 -71.032 -0 -0 58.4145 -5.20769e-06 -9.80187 -5.44029 0.938412 8.05831e-06 -24.4005 -4.04291 17.7295 -60.364 -0 -0 68.6282 -7.74796e-06 3.10224 -16.7801 -0.896384 -1.32582e-07 -36.3253 
106.36 77.055 13.991 -94.8274 -82.8441 123.906 0 -0 0 -11.6699 -4.13823 21.7653 20.0887 -6.74856 -6.13997e-05 59.9359 -8.08544 12.5518 -0 52.002 -0 -2.34931 4.4398 -0.0911004 -7.65816 7.24446 -1.18658e-06 -44.8674 -19.5473 -2.32085 -1.99173e-06 -83.5046 1.77793e-06 -7.07268 2.67396 -0.165299 0.380884 6.58233 -13.9715 16.783 -2.14382 -71.209 -0 -0 55.8284 -2.60357e-06 -9.93694 -5.05018 0.8835 -6.05868e-06 -25.3718 -3.90371 17.9126 -59.5441 -0 -0 68.7743 1.64847e-05 2.92655 -16.8075 -0.846902 1.58629e-06 -37.7468 
105.42 77.085 13.947 -94.3321 -82.9728 123.225 0 -0 0 -11.4307 -4.37699 21.8158 20.0652 -7.01806 5.64104e-05 59.517 -8.77791 12.4825 4.28891e-07 51.9438 8.80454e-07 -2.25066 4.39286 -0.086302 -7.4784 7.36282 -5.84047e-06 -44.4094 -19.976 -2.35396 0 -84.5952 0 -7.3 2.6011 -0.165996 0.523991 6.55182 -14.081 16.8368 -2.15498 -71.3238 -0 -0 53.2396 1.60786e-06 -10.0916 -4.6852 0.832903 6.50353e-06 -26.1346 -3.76722 18.0858 -58.6875 -0 -0 68.9161 8.93767e-06 2.74589 -16.837 -0.795893 4.56877e-07 -39.1373 
104.46 77.104 13.905 -93.8504 -83.1138 122.543 0 -0 0 -11.1922 -4.60832 21.864 20.0319 -7.30896 -8.63185e-05 59.0858 -9.49383 12.4732 0 52.0045 0 -2.16728 4.34913 -0.0822998 -7.31708 7.48095 -1.66981e-06 -43.9583 -20.3627 -2.40208 1.78466e-06 -85.6851 -2.36824e-06 -7.49843 2.52761 -0.165698 0.661086 6.49887 -14.1842 16.909 -2.21187 -71.3787 -0 -0 50.6597 1.8155e-06 -10.2772 -4.35735 0.789294 -1.61402e-06 -26.684 -3.63471 18.2497 -57.798 -0 -0 69.0522 5.21891e-06 2.5628 -16.8665 -0.744005 -4.3075e-06 -40.5269 
103.49 77.11 13.864 -93.3333 -83.2906 121.819 0 -0 0 -10.9567 -4.83449 21.9052 19.9877 -7.62366 -1.44874e-05 58.6447 -10.2255 12.5302 4.33e-07 52.1792 8.84254e-07 -2.09033 4.31125 -0.0787014 -7.17025 7.59744 -1.00439e-06 -43.5255 -20.7021 -2.46167 -1.95307e-06 -86.7726 1.8463e-06 -7.66833 2.45633 -0.164606 0.794585 6.42694 -14.2762 16.9943 -2.30932 -71.3769 -0 -0 48.0971 -2.74303e-06 -10.4969 -4.07388 0.754212 -3.92155e-06 -27.0274 -3.50769 18.4054 -56.8782 -0 -0 69.1812 -1.64875e-05 2.37622 -16.8985 -0.691008 1.44385e-07 -41.9072 
102.5 77.105 13.824 -92.8107 -83.4805 121.08 0 -0 0 -10.7309 -5.05907 21.9345 19.9347 -7.96402 2.84581e-05 58.1935 -10.9659 12.656 0 52.4618 0 -2.00587 4.28137 -0.0749983 -7.03226 7.71092 1.83689e-06 -43.1137 -20.9838 -2.5311 -5.07568e-06 -87.8739 4.8908e-06 -7.80962 2.38969 -0.163101 0.92841 6.33928 -14.3524 17.0874 -2.44532 -71.3278 -0 -0 45.5595 -1.69823e-07 -10.7456 -3.83379 0.727003 8.12156e-06 -27.2051 -3.38987 18.5512 -55.9295 -0 -0 69.296 -1.09648e-05 2.18421 -16.9337 -0.636392 -1.11314e-06 -43.2664 
101.5 77.088 13.785 -92.2462 -83.7013 120.297 0 -0 0 -10.5198 -5.28545 21.9465 19.875 -8.32766 -4.3809e-05 57.7354 -11.7135 12.8432 4.44781e-07 52.8441 8.9514e-07 -1.89525 4.25964 -0.0705013 -6.8982 7.82263 4.67294e-06 -42.732 -21.2061 -2.60306 0 -88.9383 0 -7.92435 2.32903 -0.161307 1.06575 6.23953 -14.4065 17.1751 -2.61345 -71.2376 -0 -0 43.0581 -2.21118e-06 -11.0134 -3.62464 0.704888 4.8808e-06 -27.286 -3.28312 18.6853 -54.952 -0 -0 69.391 1.03789e-05 1.98272 -16.977 -0.579201 2.78297e-06 -44.5663 
100.49 77.061 13.748 -91.6249 -83.9568 119.459 0 -0 0 -10.329 -5.51611 21.9412 19.8079 -8.71394 3.98509e-05 57.2737 -12.463 13.0857 -0 53.3196 -0 -1.74166 4.24645 -0.0645974 -6.76456 7.93491 5.41394e-06 -42.3806 -21.3667 -2.67167 -179.999 -89.8152 179.999 -8.01411 2.27529 -0.1594 1.20921 6.12957 -14.4384 17.2492 -2.81271 -71.1152 -0 -0 40.5967 -1.15157e-06 -11.2853 -3.42517 0.683109 9.58902e-06 -27.3656 -3.18893 18.8009 -53.9493 -0 -0 69.465 -6.51338e-06 1.76824 -17.0331 -0.518098 -2.59985e-06 -45.8022 
99.456 77.024 13.712 -90.9161 -84.2413 118.538 0 -0 0 -10.1597 -5.75345 21.9133 19.734 -9.12364 -2.42504e-05 56.8175 -13.2072 13.3765 4.63947e-07 53.876 9.12972e-07 -1.53389 4.24313 -0.0567996 -6.63159 8.05052 -9.99753e-06 -42.0601 -21.4662 -2.73047 -180 -88.8971 180 -8.08165 2.2281 -0.157398 1.35942 6.01134 -14.4486 17.2965 -3.03865 -70.9701 -0 -0 38.1848 9.3234e-06 -11.5462 -3.2069 0.654805 3.89726e-07 -27.5459 -3.10673 18.8951 -52.9205 -0 -0 69.5074 -2.88879e-06 1.53752 -17.0956 -0.452091 -2.46842e-06 -46.9953 
98.414 76.979 13.678 -90.1275 -84.5644 117.546 0 -0 0 -10.0165 -5.99802 21.8665 19.6526 -9.55026 2.01831e-05 56.3703 -13.9478 13.6922 -0 54.5126 -0 -1.2581 4.24735 -0.0466996 -6.49771 8.17378 -1.35335e-06 -41.7724 -21.51 -2.77067 -180 -87.8267 180 -8.12858 2.18652 -0.155404 1.51667 5.88587 -14.4426 17.3075 -3.28719 -70.8116 -0 -0 35.8289 8.65178e-07 -11.7782 -2.94221 0.61321 4.75899e-07 -27.9237 -3.03803 18.96 -51.867 -0 -0 69.5174 4.81401e-06 1.28988 -17.1667 -0.380799 1.72816e-06 -48.1317 
97.36 76.927 13.648 -89.2141 -84.9191 116.436 0 -0 0 -9.89733 -6.24983 21.802 19.5612 -9.99239 -5.0015e-05 55.9396 -14.6816 14.0238 4.90451e-07 55.217 9.37798e-07 -0.913588 4.25965 -0.0339998 -6.36471 8.30703 6.14725e-06 -41.5138 -21.4992 -2.78805 -180 -86.7742 180 -8.15678 2.14899 -0.153202 1.67893 5.75289 -14.4241 17.2717 -3.5554 -70.6462 -0 -0 33.5428 -7.91592e-06 -11.9699 -2.60846 0.552802 -3.41093e-06 -28.5659 -2.98211 18.9916 -50.7906 -0 -0 69.4893 4.89031e-07 1.0273 -17.2392 -0.3045 3.97644e-06 -49.2511 
96.293 76.87 13.62 -88.1435 -85.2948 115.177 0 -0 0 -9.80168 -6.50834 21.7229 19.4549 -10.4471 4.67735e-05 55.5351 -15.4056 14.361 0 55.9805 0 -0.509398 4.28289 -0.019 -6.23542 8.44676 2.86537e-06 -41.2788 -21.4294 -2.7812 -180 -85.7537 180 -8.16709 2.11582 -0.151104 1.84337 5.6122 -14.4001 17.1861 -3.84369 -70.4823 -0 -0 31.3416 6.67986e-06 -12.1084 -2.19719 0.471197 -3.8756e-06 -29.4867 -2.93808 18.9835 -49.6862 -0 -0 69.4172 -1.56225e-06 0.754194 -17.3099 -0.224398 5.1651e-07 -50.3427 
95.216 76.808 13.595 -86.8631 -85.6977 113.718 0 -0 0 -9.71951 -6.77126 21.6333 19.3382 -10.9025 1.7299e-05 55.1617 -16.1343 14.6706 5.24712e-07 56.8136 9.70154e-07 -0.0419001 4.30666 -0.00159999 -6.11229 8.60919 -1.77741e-06 -41.072 -21.3249 -2.73781 -180 -84.7584 180 -8.16322 2.07959 -0.1484 2.0044 5.46365 -14.3828 17.0399 -4.14069 -70.3199 -0 -0 29.2366 -1.30046e-05 -12.1974 -1.71005 0.369602 -9.60472e-07 -30.6616 -2.90139 18.9352 -48.5594 -0 -0 69.3041 2.32942e-06 0.478493 -17.3632 -0.142803 -2.2473e-06 -51.4922 
94.127 76.742 13.572 -85.2658 -86.1326 111.954 0 -0 0 -9.64364 -7.03695 21.537 19.207 -11.3513 2.25273e-05 54.8252 -16.8759 14.9395 5.45536e-07 57.7179 9.89934e-07 0.474895 4.32786 0.0178996 -5.99965 8.79703 1.87058e-06 -40.8896 -21.1887 -2.65602 -180 -83.8072 180 -8.14688 2.03846 -0.145194 2.15675 5.30734 -14.3779 16.8295 -4.44148 -70.1604 -0 -0 27.2445 -7.34026e-07 -12.2417 -1.16886 0.253599 8.8059e-07 -32.0086 -2.86925 18.8447 -47.4101 -0 -0 69.1489 3.47906e-07 0.209602 -17.392 -0.0626003 -7.71637e-07 -52.7151 
